HIERARCHY
ROOT hip
{
  OFFSET 0 0 0
  CHANNELS 6 Xposition Yposition Zposition Zrotation Yrotation Xrotation
  JOINT abdomen
  {
    OFFSET 0 20.6881 -0.73152
    CHANNELS 3 Zrotation Xrotation Yrotation
    JOINT chest
    {
      OFFSET 0 11.7043 -0.48768
      CHANNELS 3 Zrotation Xrotation Yrotation
      JOINT neck
      {
        OFFSET 0 22.1894 -2.19456
        CHANNELS 3 Zrotation Xrotation Yrotation
        JOINT head
        {
          OFFSET -0.24384 7.07133 1.2192
          CHANNELS 3 Zrotation Xrotation Yrotation
          JOINT leftEye
          {
            OFFSET 4.14528 8.04674 8.04672
            CHANNELS 3 Zrotation Xrotation Yrotation
            End Site
            {
              OFFSET 1 0 0
            }
          }
          JOINT rightEye
          {
            OFFSET -3.6576 8.04674 8.04672
            CHANNELS 3 Zrotation Xrotation Yrotation
            End Site
            {
              OFFSET 1 0 0
            }
          }
        }
      }
      JOINT rCollar
      {
        OFFSET -2.68224 19.2634 -4.8768
        CHANNELS 3 Zrotation Xrotation Yrotation
        JOINT rShldr
        {
          OFFSET -8.77824 -1.95073 1.46304
          CHANNELS 3 Zrotation Xrotation Yrotation
          JOINT rForeArm
          {
            OFFSET -28.1742 -1.7115 0.48768
            CHANNELS 3 Zrotation Xrotation Yrotation
            JOINT rHand
            {
              OFFSET -22.5879 0.773209 7.07136
              CHANNELS 3 Zrotation Xrotation Yrotation
              JOINT rThumb1
              {
                OFFSET -1.2192 -0.487915 3.41376
                CHANNELS 3 Zrotation Xrotation Yrotation
                JOINT rThumb2
                {
                  OFFSET -3.37035 -0.52449 3.41376
                  CHANNELS 3 Zrotation Xrotation Yrotation
                  End Site
                  {
                    OFFSET -1.78271 -1.18214 1.43049
                  }
                }
              }
              JOINT rIndex1
              {
                OFFSET -7.75947 0.938293 5.60832
                CHANNELS 3 Zrotation Xrotation Yrotation
                JOINT rIndex2
                {
                  OFFSET -2.54057 -0.884171 1.56538
                  CHANNELS 3 Zrotation Xrotation Yrotation
                  End Site
                  {
                    OFFSET -1.62519 -0.234802 1.16502
                  }
                }
              }
              JOINT rMid1
              {
                OFFSET -8.24714 1.18213 3.41376
                CHANNELS 3 Zrotation Xrotation Yrotation
                JOINT rMid2
                {
                  OFFSET -3.10165 -0.590103 1.0647
                  CHANNELS 3 Zrotation Xrotation Yrotation
                  End Site
                  {
                    OFFSET -2.48547 -0.328903 0.83742
                  }
                }
              }
              JOINT rRing1
              {
                OFFSET -8.82822 0.546677 1.51678
                CHANNELS 3 Zrotation Xrotation Yrotation
                JOINT rRing2
                {
                  OFFSET -2.60934 -0.819778 -0.0198488
                  CHANNELS 3 Zrotation Xrotation Yrotation
                  End Site
                  {
                    OFFSET -2.33842 -0.294052 0.168128
                  }
                }
              }
              JOINT rPinky1
              {
                OFFSET -8.27202 -0.0477905 -0.4584
                CHANNELS 3 Zrotation Xrotation Yrotation
                JOINT rPinky2
                {
                  OFFSET -1.82734 -0.647385 -0.700984
                  CHANNELS 3 Zrotation Xrotation Yrotation
                  End Site
                  {
                    OFFSET -1.69225 -0.51767 -0.607171
                  }
                }
              }
            }
          }
        }
      }
      JOINT lCollar
      {
        OFFSET 2.68224 19.2634 -4.8768
        CHANNELS 3 Zrotation Xrotation Yrotation
        JOINT lShldr
        {
          OFFSET 8.77824 -1.95073 1.46304
          CHANNELS 3 Zrotation Xrotation Yrotation
          JOINT lForeArm
          {
            OFFSET 28.1742 -1.7115 0.48768
            CHANNELS 3 Zrotation Xrotation Yrotation
            JOINT lHand
            {
              OFFSET 22.5879 0.773209 7.07136
              CHANNELS 3 Zrotation Xrotation Yrotation
              JOINT lThumb1
              {
                OFFSET 1.2192 -0.487915 3.41376
                CHANNELS 3 Zrotation Xrotation Yrotation
                JOINT lThumb2
                {
                  OFFSET 3.37035 -0.52449 3.41376
                  CHANNELS 3 Zrotation Xrotation Yrotation
                  End Site
                  {
                    OFFSET 1.78271 -1.18214 1.43049
                  }
                }
              }
              JOINT lIndex1
              {
                OFFSET 7.75947 0.938293 5.60832
                CHANNELS 3 Zrotation Xrotation Yrotation
                JOINT lIndex2
                {
                  OFFSET 2.54057 -0.884171 1.56538
                  CHANNELS 3 Zrotation Xrotation Yrotation
                  End Site
                  {
                    OFFSET 1.62519 -0.234802 1.16502
                  }
                }
              }
              JOINT lMid1
              {
                OFFSET 8.24714 1.18213 3.41376
                CHANNELS 3 Zrotation Xrotation Yrotation
                JOINT lMid2
                {
                  OFFSET 3.10165 -0.590103 1.0647
                  CHANNELS 3 Zrotation Xrotation Yrotation
                  End Site
                  {
                    OFFSET 2.48547 -0.328903 0.83742
                  }
                }
              }
              JOINT lRing1
              {
                OFFSET 8.82822 0.546677 1.51678
                CHANNELS 3 Zrotation Xrotation Yrotation
                JOINT lRing2
                {
                  OFFSET 2.60934 -0.819778 -0.0198488
                  CHANNELS 3 Zrotation Xrotation Yrotation
                  End Site
                  {
                    OFFSET 2.33842 -0.294052 0.168128
                  }
                }
              }
              JOINT lPinky1
              {
                OFFSET 8.27202 -0.0477905 -0.4584
                CHANNELS 3 Zrotation Xrotation Yrotation
                JOINT lPinky2
                {
                  OFFSET 1.82734 -0.647385 -0.700984
                  CHANNELS 3 Zrotation Xrotation Yrotation
                  End Site
                  {
                    OFFSET 1.69225 -0.51767 -0.607171
                  }
                }
              }
            }
          }
        }
      }
    }
  }
  JOINT rButtock
  {
    OFFSET -8.77824 4.35084 1.2192
    CHANNELS 3 Zrotation Xrotation Yrotation
    JOINT rThigh
    {
      OFFSET 0 -1.70687 -2.19456
      CHANNELS 3 Zrotation Xrotation Yrotation
      JOINT rShin
      {
        OFFSET 0 -36.8199 0.73152
        CHANNELS 3 Zrotation Xrotation Yrotation
        JOINT rFoot
        {
          OFFSET 0.73152 -45.1104 -5.12064
          CHANNELS 3 Zrotation Xrotation Yrotation
          End Site
          {
            OFFSET -1.1221 -3.69964 12.103
          }
        }
      }
    }
  }
  JOINT lButtock
  {
    OFFSET 8.77824 4.35084 1.2192
    CHANNELS 3 Zrotation Xrotation Yrotation
    JOINT lThigh
    {
      OFFSET 0 -1.70687 -2.19456
      CHANNELS 3 Zrotation Xrotation Yrotation
      JOINT lShin
      {
        OFFSET 0 -36.8199 0.73152
        CHANNELS 3 Zrotation Xrotation Yrotation
        JOINT lFoot
        {
          OFFSET -0.73152 -45.1104 -5.12064
          CHANNELS 3 Zrotation Xrotation Yrotation
          End Site
          {
            OFFSET 1.1221 -3.69964 12.103
          }
        }
      }
    }
  }
}
MOTION
Frames:	4
Frame Time:	0.03333
-85.1874 60.8819 62.8606 -9.018839 13.908214 9.695375 -14.626186 14.963204 -91.884543 13.022232 -6.415973 97.169147 20.149049 10.487377 99.679234 -32.738833 21.668677 -51.431514 -0.003202 -0.0 0.002929 0.002419 -0.0 -0.003423 -9.652052 34.83609 11.199545 178.900202 -81.912395 133.962026 -26.192484 84.041371 151.070261 -8.374687 -3.744007 -3.057179 -176.599005 -14.212892 89.690582 -159.340003 1.297705 85.659863 2.324792 -3.868358 -1.257489 -65.473562 48.47782 50.843983 -167.299449 -27.767733 145.258078 -176.871926 -42.219974 142.404535 -145.118581 0.267136 -179.21377 -156.886941 22.849637 178.151787 12.251845 41.424931 10.281659 -160.631932 55.489944 -149.561216 -4.223385 -44.025525 8.501705 -28.536399 -34.544186 -19.331627 -94.90868 -69.7334 -36.920665 -172.729431 -2.828092 -146.525109 103.19913 36.331385 -60.11186 -30.289366 -34.921729 -25.01691 173.384916 -52.451646 -119.982005 -15.602785 -1.807374 9.275986 89.835529 60.7018 -81.262631 166.082628 -13.985417 -143.87959 145.122557 1.975762 179.748161 154.316189 -12.531316 177.508166 150.5771 31.034537 146.362448 -2.092224 0.350715 1.8249 -0.000273 0.000409 0.000351 10.304437 -50.575471 -166.755608 -75.507888 -57.964226 -64.529974 168.297966 -15.845887 -144.959748 -179.999408 75.750119 0.0 -145.001821 5.537311 -0.0 -1.44616 70.167726 -11.875625 48.485689 11.232795 6.25821
-84.9051 61.482400000000005 63.4822 -8.078974 13.064516 10.000038 -14.696484 12.634912 -129.827688 12.503994 1.991178 134.217991 0.045718 12.265637 -94.450715 33.901461 4.123043 129.913649 0.000289 -0.0 -0.001287 0.000289 -0.0 -0.001287 1.929236 -13.545219 -2.783973 28.643319 -2.259513 -11.351662 117.551438 45.744388 29.613011 -64.318314 62.408649 43.369452 -68.483022 37.953034 35.659612 2.519532 -12.364444 23.111305 -46.20879 39.653588 36.317255 -161.985911 -7.275266 111.997186 -161.308537 -8.647394 143.534114 -151.623258 24.812469 136.778766 -145.100727 -1.523055 -178.649716 10.32762 -0.2843 -9.030267 -140.597871 -1.003481 -137.667119 -23.944164 -39.166757 -25.595439 9.651167 34.836278 -11.198931 121.745603 64.592324 -123.437825 178.940796 -26.313179 156.682315 8.176609 29.203701 -1.588293 178.927631 -16.453656 -89.421709 127.640222 16.064644 -63.222661 -112.658139 -76.28588 -61.487154 138.587133 15.968012 -111.878859 36.035024 51.723883 -29.830867 42.046775 58.503237 -36.2702 77.740881 72.902973 -95.870097 158.619031 -28.023033 179.71916 -32.647695 83.587819 -5.692322 161.930135 55.550322 148.364472 -179.975975 75.750017 -0.018517 -173.208965 27.97303 -0.0 55.981169 50.336501 0.711415 -168.852401 -69.65459 118.55157 0.002733 0.000562 0.001366 62.084304 -51.377629 169.189782 76.33837 -26.247856 -20.261225 62.897677 -72.351324 -36.507869
-84.5791 62.0052 64.29939999999999 -7.808938 12.395626 10.000607 -17.011106 14.733908 50.26323 -12.295091 -6.413008 -46.152503 17.776657 2.9847 68.316148 -27.392107 5.794366 -30.849054 -0.00011 0.0 -0.003186 -0.00215 -0.0 0.001392 3.191895 -25.838905 -5.074185 -133.222639 -50.008368 -159.939848 -87.03394 41.811338 -110.662469 73.404575 -79.819005 55.793677 -171.653244 -9.336374 89.949432 -96.39972 12.049764 38.904569 -140.164997 2.32688 115.878605 -161.428658 -11.478527 118.994015 -0.288514 0.832398 0.160685 -163.524558 -5.556429 143.43444 -145.121666 0.226064 -179.20064 -152.392184 -25.06467 -175.333663 -152.347368 37.911213 -147.68797 -78.279202 -52.927136 -77.388345 13.946674 42.750622 -15.783647 176.233426 -15.07995 -163.473351 0.836537 -72.70726 67.83231 -165.967326 -28.223034 -141.72453 90.495995 38.312454 -51.260865 144.416376 -26.496786 -79.817242 148.885542 -12.609062 -120.246702 177.742892 -43.316323 -115.148212 36.037333 51.722279 -29.833821 163.831367 -7.022188 -143.477278 0.014332 -1.32314 0.41596 155.321622 -1.335487 -172.01127 -11.407819 38.078322 -9.689668 76.506993 -54.628658 75.49754 -0.0 -0.000352 -0.001623 8.623382 -45.898298 6.334625 42.721692 63.860612 -123.099463 -157.799306 -34.384285 -51.593224 -179.997192 75.749053 -0.0 -145.384916 6.781715 -3.882136 -42.821661 75.701539 -59.336605 150.491881 -8.983394 -128.806337
-84.2763 62.4557 65.3138 -7.471889 11.630256 9.828291 -13.693911 14.533163 -0.0 -4.672432 -13.940201 3.975714 -0.613556 4.520981 -58.113528 20.696061 -10.139879 89.663037 -0.002449 0.0 -0.00079 0.000903 0.0 0.00437 0.11837 -0.714069 -0.157523 -60.228564 85.756323 92.924296 -132.233086 7.421269 -1.417742 160.253189 -63.025454 136.356015 -78.030179 38.689664 42.412936 170.903293 -48.947642 74.281899 -46.208044 39.653012 36.318423 -161.983373 -7.275421 111.99978 68.985399 -80.153477 40.578812 -172.382052 -31.321522 143.883283 -75.673962 -72.116519 -92.828801 -58.857114 -82.20989 -84.766917 -43.36585 -47.544753 -42.163548 -19.975274 -37.990628 -21.905192 136.350497 48.926449 -140.423525 32.741077 78.227538 -36.934871 -160.524205 35.346473 133.773661 17.699787 42.937791 -5.305181 68.482904 37.95368 -35.659311 95.108243 -5.52788 -73.350899 108.427539 34.160379 -91.742494 -4.139898 4.07711 5.927704 164.63772 -19.283552 -144.734168 -6.843443 -10.986891 0.749237 -0.004851 0.918292 -0.286703 155.495622 -1.240447 -171.992721 145.173077 12.067259 141.823769 9.583506 -23.322903 12.0817 0.0 -0.00046 0.001515 8.317863 -44.27087 5.94581 39.207167 62.842381 -112.523999 -114.746657 -57.283886 -26.802669 -0.0 -0.000417 -0.001021 63.440374 -51.542417 -180.0 82.740049 -35.838736 -19.160841 14.084818 -40.154704 -70.409074
